<svg width="64" height="64" viewBox="0 0 64 64" fill="none" xmlns="http://www.w3.org/2000/svg">
<path d="M32 50.0002C28.895 50.0002 26.25 48.6452 24.945 47.8377L23.245 46.7852L25.355 43.3852L27.055 44.4402C28 45.0227 29.885 46.0002 32 46.0002C34.155 46.0002 35.775 45.1652 36.945 44.4402L38.645 43.3852L40.755 46.7852L39.055 47.8377C37.5575 48.7677 35.2 50.0002 32 50.0002ZM28.3825 37.0452L29.455 35.6627L26.705 33.5052L25.6325 34.8877C25.6325 34.8877 24.5125 36.2502 23.0575 36.2502H23.025C21.8275 36.2327 20.665 35.2127 20.325 34.8277L19.18 33.5002L16.5325 35.7852L17.675 37.1102C17.905 37.3752 19.9975 39.7027 22.975 39.7452H23.06C26.19 39.7502 28.165 37.3252 28.3825 37.0452ZM46.3825 37.0452L47.455 35.6627L44.705 33.5052L43.6325 34.8877C43.6325 34.8877 42.5125 36.2502 41.0575 36.2502H41.025C39.8275 36.2327 38.665 35.2127 38.325 34.8277L37.18 33.5002L34.5325 35.7852L35.675 37.1102C35.905 37.3752 37.9975 39.7027 40.975 39.7452H41.06C44.19 39.7502 46.165 37.3252 46.3825 37.0452ZM46.67 8.16016C46.89 9.05431 47.0008 9.97183 47 10.8927C46.9962 11.6304 46.9124 12.3655 46.75 13.0852C50.6939 16.1578 53.5798 20.3854 55.0047 25.1776C56.4295 29.9699 56.3223 35.0874 54.6978 39.8157C53.0733 44.544 50.0128 48.647 45.9435 51.5516C41.8743 54.4563 36.9996 56.0176 32 56.0176C27.0004 56.0176 22.1257 54.4563 18.0565 51.5516C13.9872 48.647 10.9267 44.544 9.30222 39.8157C7.67775 35.0874 7.57047 29.9699 8.99533 25.1776C10.4202 20.3854 13.3061 16.1578 17.25 13.0852C17.0875 12.3664 17.0036 11.6321 17 10.8952C16.9992 9.97433 17.11 9.05681 17.33 8.16266C12.1368 11.3571 8.1282 16.1592 5.91317 21.8396C3.69814 27.5201 3.39775 33.7682 5.05764 39.6349C6.71754 45.5016 10.247 50.6662 15.1098 54.3441C19.9726 58.0219 25.903 60.012 32 60.012C38.097 60.012 44.0274 58.0219 48.8902 54.3441C53.753 50.6662 57.2825 45.5016 58.9424 39.6349C60.6023 33.7682 60.3019 27.5201 58.0868 21.8396C55.8718 16.1592 51.8632 11.3571 46.67 8.16266V8.16016Z" fill="url(#paint0_linear_48_5411)"/>
<path d="M32 7.71525C28.185 1.28775 20 3.75025 20 10.8928C20 18.0928 32.0275 25.5003 32.0275 25.5003C32.0275 25.5003 44 18.0928 44 10.8928C44 3.75025 35.815 1.28775 32 7.71525Z" fill="url(#paint1_linear_48_5411)"/>
<defs>
<linearGradient id="paint0_linear_48_5411" x1="4" y1="8.16016" x2="30.3581" y2="72.2103" gradientUnits="userSpaceOnUse">
<stop offset="0.272135" stop-color="#34263B"/>
<stop offset="0.658079" stop-color="#13172C"/>
</linearGradient>
<linearGradient id="paint1_linear_48_5411" x1="20" y1="25.5003" x2="41.3709" y2="1.6447" gradientUnits="userSpaceOnUse">
<stop stop-color="#F81E42"/>
<stop offset="1" stop-color="#FA6981"/>
</linearGradient>
</defs>
</svg>
