<svg width="78" height="38" viewBox="0 0 78 38" fill="none" xmlns="http://www.w3.org/2000/svg">
<path d="M9.24913 25.2431H2.87344L0 37.2388H3.2662L4.34272 32.7347H6.02161L8.91946 37.2388H12.4807L9.23286 32.4611C12.1144 31.7389 13.0953 30.2512 13.2764 28.6587C13.4535 27.0681 12.5377 25.241 9.2471 25.241L9.24913 25.2431ZM10.0265 28.8315C9.8922 30.0043 8.75056 30.6957 7.16325 30.6957H4.83112L5.70007 27.0784H8.16651C9.47298 27.0784 10.1527 27.6957 10.0265 28.8315ZM18.3538 25.2451H21.6261L20.865 28.4303L18.7587 37.2326H15.4437L18.3538 25.2451ZM46.034 24.5805L46.0564 37.2306H42.9428L42.9754 28.2039L36.3474 37.2306H33.3152L30.572 28.1545L26.1804 37.2306H22.554L29.0396 24.0641C29.5118 23.2143 29.9656 22.8357 30.861 22.8316C31.4532 22.8275 32.0962 23.1587 32.3913 24.1587L35.224 34.0331L42.5867 23.9406C43.2115 23.0847 43.7406 22.8233 44.4691 22.8419C45.2465 22.8624 46.0299 23.3563 46.0299 24.5805H46.034ZM68.1037 31.5146C67.8839 33.4425 69.4041 34.961 72.0679 35.0001C73.6715 35.0248 74.6789 34.8438 75.9345 34.5043L75.3016 37.14C74.0093 37.3499 73.0915 37.4404 72.0374 37.4404C66.7993 37.4404 64.3654 34.9384 64.7561 31.4611C65.1977 27.5414 68.7855 24.9036 74.4387 24.9036C75.4786 24.9036 77.07 25.0764 78 25.3007L77.418 27.7163C76.2702 27.42 75.0187 27.3521 74.05 27.3439C70.7533 27.3192 68.3988 28.9056 68.1058 31.5146H68.1037ZM54.6035 32.7491L57.6478 28.6052L58.6002 32.7491H54.6035ZM59.7134 37.2326H62.8595L59.8314 26.7904C59.4366 25.525 58.6592 25.1916 57.8513 25.2575C57.3446 25.3007 56.8176 25.5167 56.2742 26.2492L48.4333 37.2347H51.6547L53.2522 34.7779L59.1049 34.7717L59.7134 37.2347V37.2326ZM65.273 10.3955C64.6096 10.6136 35.3522 18.4098 34.9229 18.5168C34.351 18.6588 33.7466 18.6259 33.2175 18.1547C32.4462 17.4695 32.7576 16.521 32.9794 16.0395C33.2399 15.4716 38.8728 4.04171 38.8728 4.04171L16.39 13.1362C15.4519 13.4511 15.1324 12.7062 15.1324 12.7062C15.1324 12.7062 14.7396 11.8811 15.7652 11.4161C15.7652 11.4161 40.0165 0.910062 40.4622 0.716649C40.8671 0.541754 41.6302 0.194022 42.2224 0.716649C42.835 1.25779 42.5826 2.02528 42.4015 2.51087C42.314 2.74132 38.2664 13.5786 38.2664 13.5786C38.2664 13.5786 62.3548 3.61579 63.1261 3.33184C64.6523 2.77218 66.0402 3.10346 67.0353 4.2125C67.5583 4.79685 68.3907 6.24744 67.8819 7.92026C67.54 9.03958 66.7891 9.8976 65.273 10.3935V10.3955Z" fill="white"/>
</svg>
